<?xml version="1.0" encoding="UTF-8"?><svg id="Layer_2" xmlns="http://www.w3.org/2000/svg" viewBox="0 0 1018.09 1024"><defs><style>.cls-1{fill:#3d948b;}</style></defs><g id="Layer_1-2"><path d="M652.97,217.42c.5,1.62,5.64,2.05,7.1,2.16,75.62,5.58,153.44,9.66,225.33,35.54,61.24,22.05,83.85,41.94,104.04,104.44,19.75,61.15,24.92,126.24,26.95,190.26,3.48,109.71,5.45,246.92-34.07,350.05-24.59,64.17-83.31,84.33-145.97,98.52-99.8,22.61-207.48,23.66-309.5,25.59-8.21.16-10.38-.48-17.47-1.01-2.69-.2-10.24,1.03-15.19,1-82.95-.49-167.68-2.8-249.88-14.25-50.86-7.09-146.65-26.84-182.44-65.33-44.91-48.31-56.9-174.86-59.4-238.58-4.45-113.39-7.53-261.13,34.07-367.51,40.01-102.3,185.58-101.99,277.52-116.51l48.56-3.29-2.91-3.08L112.15,72.21c-34.67-30.81-1.95-84.46,41.31-69.69l354.89,203.89L858.5,5.45c43.54-14.14,73.47,41.41,38.97,70.62l-244.5,141.35ZM482.46,321.42c-90.14,5.29-184.68,3.56-272.85,25.13-64.71,15.83-81.44,56.24-92.32,117.25-13.46,75.41-10.98,159.21-6.81,235.52,2.5,45.84,4.88,91.68,22.4,134.77,22.14,54.43,78.1,61.84,130.01,68.65,140.75,18.46,297.31,19.9,438.64,6.68,42.78-4,124.03-12.25,156.65-39.82,44.97-38,49.08-131.28,51.24-186.7,3.06-78.29,5.24-205.22-23.77-277.39-25.58-63.62-107.16-67.24-166.67-73.46-61.68-6.45-124.74-8.72-186.68-9.79-2.58-.04-4.97-1.15-7.55-1.18l-42.29.37Z"/><path class="cls-1" d="M754.27,470.88c79.99-1.07,132.44,85.86,93.84,156.16-36.69,66.82-131.38,74.11-177.05,12.68-51.3-68.99-2.54-167.69,83.21-168.84Z"/><path class="cls-1" d="M264.19,470.88c79.96-1.07,132.19,85.53,93.84,156.16-37.44,68.96-135.61,73.65-179.67,8.75-47.1-69.37,2.19-163.79,85.83-164.91Z"/><path class="cls-1" d="M381.72,715.15c35.13,30.56,82.71,47.03,128.23,55.12,32,5.69,84.88,11,115.49.83,3.47-1.15,15.18-7.96,16.08-7.97,1.45,0,3.03,1.26,2.71,2.73-30.6,34.78-86.64,33.73-128.82,26.24-42.36-7.52-89.28-27.47-120.61-57.3-2.36-2.25-13.27-13.4-14.16-15.31-1-2.16-.75-2.94,1.09-4.34Z"/></g></svg>